<svg width="800" height="600" viewBox="0 0 800 600" fill="none" xmlns="http://www.w3.org/2000/svg">
  <defs>
    <linearGradient id="bg" x1="0" y1="0" x2="800" y2="600">
      <stop offset="0%" stop-color="#0F172A"/>
      <stop offset="100%" stop-color="#1E293B"/>
    </linearGradient>
    <linearGradient id="screen" x1="0" y1="0" x2="1" y2="1">
      <stop offset="0%" stop-color="#2563EB"/>
      <stop offset="100%" stop-color="#7C3AED"/>
    </linearGradient>
    <filter id="shadow">
      <feDropShadow dx="0" dy="8" stdDeviation="12" flood-color="#000" flood-opacity="0.35"/>
    </filter>
  </defs>
  <rect width="800" height="600" rx="30" fill="url(#bg)"/>
  <circle cx="120" cy="100" r="60" fill="#2563EB" opacity="0.12"/>
  <circle cx="700" cy="500" r="80" fill="#7C3AED" opacity="0.12"/>
  <g filter="url(#shadow)">
    <rect x="180" y="120" width="440" height="270" rx="18" fill="#111827"/>
    <rect x="195" y="135" width="410" height="240" rx="10" fill="url(#screen)"/>
    <circle cx="215" cy="155" r="6" fill="#EF4444"/>
    <circle cx="235" cy="155" r="6" fill="#F59E0B"/>
    <circle cx="255" cy="155" r="6" fill="#10B981"/>
    <text x="225" y="210" fill="#E2E8F0" font-size="18" font-family="monospace">&lt;Developer /&gt;</text>
    <text x="225" y="245" fill="#93C5FD" font-size="16" font-family="monospace">const portfolio = {</text>
    <text x="255" y="275" fill="#A5F3FC" font-size="16" font-family="monospace">name: "Your Name",</text>
    <text x="255" y="305" fill="#C4B5FD" font-size="16" font-family="monospace">stack: ["Next.js","Python"],</text>
    <text x="255" y="335" fill="#86EFAC" font-size="16" font-family="monospace">status: "Building..."</text>
    <text x="225" y="365" fill="#E2E8F0" font-size="16" font-family="monospace">};</text>
  </g>
  <rect x="150" y="390" width="500" height="22" rx="11" fill="#475569"/>
  <rect x="280" y="395" width="240" height="8" rx="4" fill="#94A3B8"/>
  <rect x="90" y="220" width="90" height="42" rx="10" fill="#2563EB"/>
  <text x="115" y="247" fill="white" font-size="18" font-family="Arial" font-weight="bold">JS</text>
  <rect x="650" y="170" width="90" height="42" rx="10" fill="#22C55E"/>
  <text x="665" y="197" fill="white" font-size="18" font-family="Arial" font-weight="bold">API</text>
  <rect x="620" y="320" width="120" height="42" rx="10" fill="#7C3AED"/>
  <text x="640" y="347" fill="white" font-size="16" font-family="Arial" font-weight="bold">Next.js</text>
  <rect x="60" y="340" width="110" height="42" rx="10" fill="#F97316"/>
  <text x="80" y="367" fill="white" font-size="16" font-family="Arial" font-weight="bold">Python</text>
</svg>